<?xml version="1.0" standalone="no"?>
<!DOCTYPE svg PUBLIC "-//W3C//DTD SVG 20010904//EN"
 "http://www.w3.org/TR/2001/REC-SVG-20010904/DTD/svg10.dtd">
<svg version="1.0" xmlns="http://www.w3.org/2000/svg"
 width="1536.000000pt" height="1024.000000pt" viewBox="0 0 1536.000000 1024.000000"
 preserveAspectRatio="xMidYMid meet">

<g transform="translate(0.000000,1024.000000) scale(0.100000,-0.100000)"
fill="#000000" stroke="none">
<path d="M4195 6810 c-339 -32 -654 -179 -890 -415 -207 -208 -351 -486 -411
-795 -22 -115 -24 -426 -2 -530 14 -71 25 -78 93 -66 l32 6 -16 68 c-10 46
-15 124 -15 252 -1 205 15 306 76 479 133 380 438 688 811 820 378 133 796 95
1131 -104 226 -134 397 -314 514 -543 105 -203 154 -403 156 -634 l1 -138 53
0 52 0 0 129 c0 148 -12 245 -45 377 -124 488 -482 873 -956 1028 -176 57
-406 84 -584 66z"/>
<path d="M3691 6411 c-81 -11 -77 -26 42 -152 174 -186 234 -278 244 -374 13
-130 -107 -255 -246 -255 -34 0 -70 7 -95 20 -36 17 -199 149 -353 286 l-53
46 -9 -24 c-5 -13 -12 -82 -16 -153 -12 -224 31 -353 160 -481 127 -126 227
-159 481 -159 l170 1 166 -191 c91 -104 227 -262 301 -350 167 -199 372 -399
455 -443 49 -26 71 -32 123 -32 127 0 258 93 322 228 26 55 32 79 32 137 0
146 -50 214 -382 521 -311 287 -449 413 -525 480 l-57 50 -5 159 c-5 193 -24
295 -73 395 -110 224 -367 334 -682 291z m262 -86 c157 -28 285 -116 345 -238
47 -95 62 -190 62 -386 0 -158 1 -171 20 -184 56 -39 787 -713 852 -786 129
-143 135 -278 18 -405 -82 -89 -187 -118 -273 -75 -66 33 -340 317 -584 604
-121 143 -252 293 -289 333 l-69 74 -90 -12 c-155 -21 -325 2 -427 57 -68 37
-153 130 -189 206 -34 73 -58 225 -43 270 l9 27 120 -100 c153 -128 223 -164
314 -164 95 1 175 39 245 115 63 67 86 126 86 213 -1 105 -56 210 -195 369
-41 47 -75 88 -75 91 0 10 82 6 163 -9z"/>
<path d="M5029 4524 c-7 -20 -6 -32 6 -50 19 -29 46 -31 68 -6 34 38 15 82
-35 82 -22 0 -31 -6 -39 -26z"/>
<path d="M5150 6219 c-71 -43 -113 -84 -182 -176 -39 -52 -137 -161 -218 -241
-81 -81 -152 -157 -159 -169 -18 -34 -13 -88 10 -117 23 -29 69 -56 95 -56 42
0 115 51 233 164 69 67 160 145 201 175 153 111 168 124 189 161 27 48 27 90
0 142 -20 38 -112 138 -127 138 -4 0 -23 -10 -42 -21z m68 -115 c63 -76 49
-106 -93 -204 -63 -44 -167 -130 -247 -207 -75 -73 -149 -135 -163 -139 -32
-8 -55 1 -55 22 0 9 70 87 156 173 86 86 181 190 212 231 54 73 137 160 153
160 4 0 21 -16 37 -36z"/>
<path d="M7637 5678 c-4 -83 -7 -459 -7 -835 l0 -683 160 0 160 0 0 213 c0
116 -3 492 -7 835 l-6 622 -147 0 -147 0 -6 -152z"/>
<path d="M9560 5675 c0 -6 -16 -116 -35 -245 -68 -449 -185 -1250 -185 -1260
0 -6 60 -10 168 -10 l168 0 40 361 39 360 35 -53 c20 -29 97 -141 171 -248 75
-107 152 -219 172 -247 l35 -53 155 218 c85 119 178 252 207 294 30 43 55 76
56 75 2 -1 19 -142 38 -312 20 -171 39 -329 42 -352 l6 -43 169 0 c137 0 169
3 169 14 0 7 -34 245 -75 527 -41 283 -88 611 -105 729 -17 118 -32 221 -33
229 -1 8 -121 -158 -266 -370 -146 -211 -282 -410 -304 -442 -22 -32 -43 -54
-47 -50 -10 11 -184 262 -410 588 -204 297 -210 304 -210 290z"/>
<path d="M5109 5473 c37 -76 206 -426 376 -778 169 -352 311 -643 315 -648 6
-7 144 268 596 1191 l183 372 -198 0 -198 0 -183 -432 c-100 -238 -184 -435
-187 -438 -2 -2 -6 5 -9 15 -3 11 -83 207 -178 435 l-173 415 -205 3 -206 2
67 -137z"/>
<path d="M6815 5136 c-38 -8 -97 -24 -130 -36 -58 -22 -145 -68 -145 -76 0 -3
97 -181 105 -192 1 -1 27 9 58 23 159 73 348 69 397 -8 13 -21 28 -157 18
-157 -3 0 -25 7 -49 16 -100 35 -306 27 -425 -17 -235 -88 -261 -394 -43 -514
49 -27 64 -30 169 -33 147 -5 206 15 289 94 30 30 56 54 58 54 2 0 3 -29 3
-65 l0 -65 146 0 146 0 -4 348 c-5 385 -9 412 -71 494 -37 49 -118 101 -192
124 -69 22 -244 27 -330 10z m295 -615 c0 -99 -85 -170 -203 -171 -66 0 -121
19 -136 48 -19 35 -13 87 12 109 36 33 75 41 205 42 l122 1 0 -29z"/>
<path d="M8524 5136 c-93 -21 -169 -62 -238 -127 -208 -194 -208 -534 0 -728
103 -97 223 -141 386 -141 159 0 268 38 353 124 46 47 113 152 103 161 -2 3
-57 18 -122 34 l-117 30 -31 -35 c-81 -92 -223 -108 -330 -39 -35 24 -78 85
-93 133 l-6 22 365 0 366 0 0 78 c0 140 -44 255 -133 350 -59 62 -108 93 -193
123 -77 27 -226 34 -310 15z m250 -250 c23 -13 51 -42 64 -64 42 -74 48 -72
-189 -72 l-210 0 6 23 c18 60 76 116 143 138 45 14 141 1 186 -25z"/>
<path d="M11475 5135 c-83 -16 -129 -32 -214 -74 l-62 -32 37 -67 c20 -37 45
-82 56 -99 l19 -33 37 19 c93 47 253 72 329 52 24 -7 55 -22 69 -35 24 -20 28
-33 33 -100 6 -74 6 -77 -14 -71 -83 28 -157 37 -250 31 -162 -9 -252 -42
-319 -116 -54 -60 -70 -102 -70 -190 0 -62 5 -84 27 -126 45 -88 124 -140 235
-153 145 -18 283 26 358 113 l34 40 0 -67 0 -67 146 0 145 0 -3 358 c-3 326
-6 361 -23 407 -24 61 -102 143 -166 173 -102 49 -262 64 -404 37z m302 -625
c-8 -62 -41 -106 -102 -136 -47 -23 -65 -26 -125 -22 -60 3 -74 8 -97 31 -52
52 -28 125 50 154 17 6 88 12 156 12 l124 1 -6 -40z"/>
<path d="M12586 5139 c-65 -15 -155 -70 -202 -123 -89 -98 -127 -209 -128
-376 -1 -175 38 -286 138 -386 90 -89 143 -108 311 -109 121 0 134 2 189 27
32 16 73 45 92 65 l34 37 0 -292 0 -292 155 0 155 0 0 720 0 720 -150 0 -150
0 0 -65 0 -66 -35 35 c-95 96 -264 139 -409 105z m314 -286 c82 -33 123 -107
123 -219 0 -61 -4 -79 -30 -125 -40 -71 -107 -109 -194 -109 -97 0 -160 36
-202 115 -29 54 -31 183 -3 235 60 114 181 155 306 103z"/>
<path d="M3865 5056 c-16 -7 -64 -43 -105 -78 -126 -109 -447 -431 -465 -466
-14 -30 -14 -35 1 -67 19 -42 214 -231 260 -252 18 -9 43 -13 56 -10 45 12
490 441 538 519 40 66 20 131 -77 250 -82 101 -146 133 -208 104z m111 -118
c50 -52 114 -149 114 -172 0 -25 -472 -496 -496 -496 -9 0 -64 47 -122 104
l-107 105 30 32 c83 88 481 462 499 469 26 9 42 1 82 -42z"/>
</g>
</svg>
